<?xml version="1.0" standalone="no"?>
<!DOCTYPE svg PUBLIC "-//W3C//DTD SVG 20010904//EN"
 "http://www.w3.org/TR/2001/REC-SVG-20010904/DTD/svg10.dtd">
<svg version="1.0" xmlns="http://www.w3.org/2000/svg"
 width="118.000000pt" height="118.000000pt" viewBox="0 0 118.000000 118.000000"
 preserveAspectRatio="xMidYMid meet">
<metadata>
Created by potrace 1.11, written by Peter Selinger 2001-2013
</metadata>
<g transform="translate(0.000000,118.000000) scale(0.100000,-0.100000)"
fill="#000000" stroke="none">
<path d="M480 1164 c-73 -15 -147 -41 -155 -54 -3 -5 33 -48 81 -96 l86 -87
99 -1 99 -1 90 90 90 90 -35 17 c-88 46 -247 65 -355 42z"/>
<path d="M249 1067 c-45 -31 -124 -114 -146 -155 l-18 -32 91 -91 91 -91 102
-2 c85 -2 103 0 110 13 4 9 6 58 5 110 l-2 94 -88 88 c-49 49 -94 89 -100 89
-6 0 -27 -10 -45 -23z"/>
<path d="M791 1003 l-92 -86 3 -111 3 -110 100 -1 100 -1 97 95 98 94 -18 27
c-49 76 -159 180 -190 180 -6 0 -51 -39 -101 -87z"/>
<path d="M56 832 c-31 -61 -49 -148 -49 -237 1 -95 3 -111 27 -190 31 -101 32
-101 132 -2 l88 88 1 97 1 97 -85 87 c-47 49 -89 88 -93 88 -4 0 -14 -12 -22
-28z"/>
<path d="M1016 776 l-86 -87 0 -99 0 -99 85 -85 c46 -47 88 -86 93 -86 16 0
52 96 61 161 18 133 -5 308 -48 360 l-18 22 -87 -87z"/>
<path d="M290 482 c-29 -4 -200 -168 -200 -192 0 -15 56 -91 88 -120 33 -30
106 -80 117 -80 6 0 50 40 99 89 l89 89 1 97 c1 53 -2 102 -6 108 -6 10 -131
16 -188 9z"/>
<path d="M700 375 l0 -109 92 -88 c50 -48 96 -88 101 -88 27 0 166 131 192
181 13 25 11 28 -80 119 l-94 93 -105 1 -106 1 0 -110z"/>
<path d="M409 168 c-49 -48 -89 -90 -89 -93 0 -13 96 -48 165 -60 115 -20 241
-5 349 40 l39 16 -91 92 -91 91 -97 1 -96 1 -89 -88z"/>
</g>
</svg>
